# xmcd
#
# Track frame offsets: 
#        182
#        25540
#        49682
#        66597
#        83620
#        111422
#        133635
#        163630
#
# Disc length: 2476 seconds
#
# Revision: 40
# Processed by: cddbd v1.5.2PL0 Copyright (c) Steve Scherf et al.
# Submitted via: ExactAudioCopy v1.3
#
DISCID=6409aa08
DTITLE=Madonna - Madonna
DYEAR=1983
DGENRE=Pop
TTITLE0=Lucky Star
TTITLE1=Borderline
TTITLE2=Burning Up
TTITLE3=I Know It
TTITLE4=Holiday
TTITLE5=Think Of Me
TTITLE6=Physical Attraction
TTITLE7=Everybody
EXTD=ItaloDiscoParana -=dj-pizza=
EXTT0=
EXTT1=
EXTT2=
EXTT3=
EXTT4=
EXTT5=
EXTT6=
EXTT7=
PLAYORDER=
